# xmcd
#
# Track frame offsets:
#	150
#	14283
#	36115
#	47758
#	62844
#	81627
#	97355
#	110429
#	123644
#	138223
#	160018
#	173763
#
# Disc length: 2480 seconds
#
# Revision: 0
# Processed by: cddbd v1.5.1PL0 Copyright (c) Steve Scherf et al.
# Submitted via: dBpowerAMP V4.0
#
DISCID=a409ae0c
DTITLE=Big Bill Broonzy - Telling my story
DYEAR=1900
DGENRE=Blues
TTITLE0=Rollin' Stone
TTITLE1=Dust My Broom
TTITLE2=Don't Start me Talkin'
TTITLE3=Jazbo Brown From Memphis Town
TTITLE4=Stagger Lee
TTITLE5=Three Woman Blues
TTITLE6=Chewin' Mama Blues
TTITLE7=Rambler's Blues
TTITLE8=My Home Is In The DElta
TTITLE9=Goin' Back Home
TTITLE10=Third Degree Blues
TTITLE11=Black White And Brown (Live)
EXTD=
EXTT0=
EXTT1=
EXTT2=
EXTT3=
EXTT4=
EXTT5=
EXTT6=
EXTT7=
EXTT8=
EXTT9=
EXTT10=
EXTT11=
PLAYORDER=
